<?xml version="1.0" encoding="iso-8859-1"?>
<!-- Generator: Adobe Illustrator 19.0.0, SVG Export Plug-In . SVG Version: 6.00 Build 0)  -->
<svg version="1.1" id="Layer_1" xmlns="http://www.w3.org/2000/svg" xmlns:xlink="http://www.w3.org/1999/xlink" x="0px" y="0px"
	 viewBox="0 0 512 512" style="enable-background:new 0 0 512 512;" xml:space="preserve">
<g>
	<g>
		<path d="M460.8,486.4c-20.898,0-30.421-10.624-34.756-20.838C477.244,437.154,512,382.583,512,320c0-14.14-11.46-25.6-25.6-25.6
			H273.169c0.043-1.553-0.145-3.14-0.708-4.693c-2.415-6.647-9.762-10.069-16.41-7.646c-5.299,1.929-8.397,6.997-8.26,12.339H66.398
			V76.8c0-28.237,22.963-51.2,51.2-51.2c12.211,0,23.219,4.523,31.966,11.708c-23.202,16.196-33.818,46.379-23.697,74.197
			c2.321,6.383,7.083,11.58,13.235,14.447c3.422,1.596,7.117,2.398,10.82,2.398c2.961,0,5.922-0.512,8.755-1.544l72.166-26.266
			c13.286-4.838,20.139-19.524,15.3-32.811C236.979,42.53,212.813,25.6,186.01,25.6c-3.874,0-7.714,0.384-11.503,1.084
			C160.555,10.598,140.561,0,117.598,0c-42.351,0-76.8,34.449-76.8,76.8v217.6H25.6C11.46,294.4,0,305.86,0,320
			c0,62.515,34.688,117.026,85.794,145.459C81.434,475.725,72.064,486.4,51.2,486.4c-7.074,0-12.8,5.726-12.8,12.8
			c0,7.074,5.726,12.8,12.8,12.8c32.896,0,49.775-17.621,57.711-36.053c17.946,6.647,37.257,10.453,57.489,10.453h179.2
			c20.215,0,39.518-3.806,57.463-10.436C411,494.387,427.913,512,460.8,512c7.074,0,12.8-5.726,12.8-12.8
			C473.6,492.126,467.874,486.4,460.8,486.4z M172.885,53.521c4.326-1.57,8.764-2.321,13.124-2.321
			c15.684,0,30.413,9.685,36.088,25.276l-72.166,26.266C142.677,82.816,152.951,60.774,172.885,53.521z M345.6,460.8H166.4
			c-77.764,0-140.8-63.044-140.8-140.8h460.8C486.4,397.756,423.364,460.8,345.6,460.8z"/>
	</g>
</g>
<g>
	<g>
		<circle cx="207.898" cy="149.751" r="12.8"/>
	</g>
</g>
<g>
	<g>
		<circle cx="225.408" cy="197.888" r="12.8"/>
	</g>
</g>
<g>
	<g>
		<circle cx="242.918" cy="245.973" r="12.8"/>
	</g>
</g>
<g>
	<g>
		<circle cx="243.985" cy="136.619" r="12.8"/>
	</g>
</g>
<g>
	<g>
		<circle cx="265.643" cy="183.023" r="12.8"/>
	</g>
</g>
<g>
	<g>
		<circle cx="287.258" cy="229.427" r="12.8"/>
	</g>
</g>
<g>
	<g>
		<circle cx="308.907" cy="275.797" r="12.8"/>
	</g>
</g>
<g>
	<g>
		<circle cx="171.861" cy="162.901" r="12.8"/>
	</g>
</g>
<g>
	<g>
		<circle cx="185.071" cy="212.343" r="12.8"/>
	</g>
</g>
<g>
	<g>
		<circle cx="198.315" cy="261.794" r="12.8"/>
	</g>
</g>
<g>
</g>
<g>
</g>
<g>
</g>
<g>
</g>
<g>
</g>
<g>
</g>
<g>
</g>
<g>
</g>
<g>
</g>
<g>
</g>
<g>
</g>
<g>
</g>
<g>
</g>
<g>
</g>
<g>
</g>
</svg>
