<?xml version="1.0" encoding="iso-8859-1"?>
<!-- Generator: Adobe Illustrator 19.0.0, SVG Export Plug-In . SVG Version: 6.00 Build 0)  -->
<svg version="1.1" id="Layer_1" xmlns="http://www.w3.org/2000/svg" xmlns:xlink="http://www.w3.org/1999/xlink" x="0px" y="0px"
	 viewBox="0 0 512 512" style="enable-background:new 0 0 512 512;" xml:space="preserve">
<g>
	<g>
		<path d="M501.743,193.702L285.132,263.55v-41.013H0v133.544c0,46.926,38.177,85.104,85.103,85.104h114.926
			c46.926,0,85.103-38.178,85.103-85.104v-57.416L512,225.51L501.743,193.702z M251.712,356.081
			c0,28.498-23.186,51.684-51.683,51.684H85.103c-28.498,0-51.683-23.186-51.683-51.684V255.957h218.292V356.081z"/>
	</g>
</g>
<g>
	<g>
		<path d="M206.532,145.796c0-4.674,0.892-6.135,3.275-10.037c3.255-5.329,8.175-13.384,8.175-27.456s-4.919-22.125-8.175-27.456
			c-2.383-3.901-3.274-5.362-3.274-10.033h-33.42c0,14.072,4.919,22.124,8.174,27.455c2.384,3.901,3.275,5.362,3.275,10.034
			c0,4.673-0.891,6.134-3.275,10.036c-3.256,5.331-8.176,13.385-8.176,27.457c0,14.073,4.919,22.126,8.175,27.456
			c2.383,3.902,3.275,5.363,3.275,10.037h33.42c0-14.073-4.919-22.126-8.175-27.456
			C207.424,151.931,206.532,150.471,206.532,145.796z"/>
	</g>
</g>
<g>
	<g>
		<path d="M103.846,155.833c-2.383-3.902-3.275-5.363-3.275-10.037c0-4.674,0.892-6.135,3.275-10.037
			c3.255-5.329,8.173-13.384,8.173-27.456s-4.919-22.125-8.175-27.456c-2.383-3.901-3.274-5.362-3.274-10.033h-33.42
			c0,14.072,4.919,22.124,8.175,27.455c2.384,3.901,3.275,5.362,3.275,10.034c0,4.673-0.891,6.134-3.275,10.036
			c-3.255,5.331-8.175,13.385-8.175,27.457c0,14.073,4.919,22.126,8.175,27.456c2.383,3.902,3.275,5.363,3.275,10.037h33.42
			C112.021,169.216,107.101,161.163,103.846,155.833z"/>
	</g>
</g>
<g>
</g>
<g>
</g>
<g>
</g>
<g>
</g>
<g>
</g>
<g>
</g>
<g>
</g>
<g>
</g>
<g>
</g>
<g>
</g>
<g>
</g>
<g>
</g>
<g>
</g>
<g>
</g>
<g>
</g>
</svg>
