<?xml version="1.0" encoding="iso-8859-1"?>
<!-- Generator: Adobe Illustrator 17.1.0, SVG Export Plug-In . SVG Version: 6.00 Build 0)  -->
<!DOCTYPE svg PUBLIC "-//W3C//DTD SVG 1.1//EN" "http://www.w3.org/Graphics/SVG/1.1/DTD/svg11.dtd">
<svg version="1.1" id="Capa_1" xmlns="http://www.w3.org/2000/svg" xmlns:xlink="http://www.w3.org/1999/xlink" x="0px" y="0px"
	 viewBox="0 0 226.6 226.6" style="enable-background:new 0 0 226.6 226.6;" xml:space="preserve">
<path d="M200.575,190.073H26.023c-2.209,0-4-1.791-4-4v-42.706C9.247,140.193,0,128.643,0,115.177
	c0-13.744,9.588-25.291,22.425-28.304c1.431-28.004,24.663-50.348,53.017-50.348h73.002c28.182,0,51.306,22.076,52.988,49.842
	c14.191,1.912,25.168,14.103,25.168,28.809c0,13.466-9.247,25.015-22.024,28.19v42.706
	C204.575,188.282,202.784,190.073,200.575,190.073z M176.46,182.073h20.115v-42.029c0-2.023,1.51-3.727,3.519-3.971
	c10.55-1.28,18.506-10.264,18.506-20.896c0-11.618-9.452-21.07-21.07-21.07s-21.069,9.452-21.069,21.069V182.073z M58.14,182.073
	h110.32v-37.426H58.14V182.073z M30.023,182.073H50.14v-66.896c0-11.618-9.452-21.069-21.07-21.069
	c-0.721,0-1.433,0.037-2.135,0.107c-0.096,0.014-0.191,0.024-0.289,0.031C16.165,95.452,8,104.379,8,115.177
	c0,10.632,7.955,19.616,18.505,20.896c2.009,0.244,3.519,1.948,3.519,3.971V182.073z M58.14,136.648h110.32v-1.942
	c0-5.964-4.853-10.816-10.816-10.816H68.955c-5.964,0-10.815,4.852-10.815,10.816V136.648z M68.955,115.89h88.688
	c4.022,0,7.755,1.269,10.816,3.427v-4.14c0-14.633,10.868-26.775,24.956-28.779c-1.653-23.367-21.192-41.872-44.973-41.872H75.441
	c-23.693,0-43.177,18.37-44.954,41.616c15.374,0.742,27.652,13.482,27.652,29.035v4.14C61.201,117.158,64.933,115.89,68.955,115.89z
	"/>
<g>
</g>
<g>
</g>
<g>
</g>
<g>
</g>
<g>
</g>
<g>
</g>
<g>
</g>
<g>
</g>
<g>
</g>
<g>
</g>
<g>
</g>
<g>
</g>
<g>
</g>
<g>
</g>
<g>
</g>
</svg>
